<?xml version="1.0" encoding="utf-8"?>
<!-- Generator: Adobe Illustrator 19.2.1, SVG Export Plug-In . SVG Version: 6.00 Build 0)  -->
<svg version="1.1" id="Layer_1" xmlns="http://www.w3.org/2000/svg" xmlns:xlink="http://www.w3.org/1999/xlink" x="0px" y="0px"
	 viewBox="0 0 80 48" style="enable-background:new 0 0 80 48;" xml:space="preserve">
<style type="text/css">
	.st0{fill:#999999;}
	.st1{fill:#FFFFFF;stroke:#E0E0E0;stroke-miterlimit:10;}
	.st2{fill:#666766;}
	.st3{fill:#E7E7E7;}
	.st4{fill:#BBBDBF;}
	.st5{clip-path:url(#SVGID_2_);}
	.st6{fill:none;stroke:#BBBDBF;stroke-miterlimit:10;}
	.st7{clip-path:url(#SVGID_4_);}
	.st8{clip-path:url(#SVGID_6_);}
	.st9{clip-path:url(#SVGID_8_);}
	.st10{clip-path:url(#SVGID_10_);}
	.st11{clip-path:url(#SVGID_12_);}
	.st12{clip-path:url(#SVGID_14_);}
	.st13{clip-path:url(#SVGID_16_);}
	.st14{clip-path:url(#SVGID_18_);}
	.st15{clip-path:url(#SVGID_20_);}
	.st16{clip-path:url(#SVGID_22_);}
	.st17{fill:#FFFFFF;}
	.st18{fill:#E7E7E7;stroke:#BBBDBF;stroke-miterlimit:10;}
	.st19{fill:#454545;}
	.st20{fill:none;}
	.st21{fill:#933A3A;}
</style>
<g>
	<path class="st0" d="M75,0H5C2.2,0,0,2.2,0,5v38c0,2.8,2.2,5,5,5h70c2.8,0,5-2.2,5-5V5C80,2.2,77.7,0,75,0z M37.8,39.9H4.6v-3.2
		h33.2V39.9z M47.5,32.7H4.6v-3.2h42.8V32.7z M47.5,25.6H4.6v-3.2h42.8V25.6z M47.5,18.4H4.6v-3.2h42.8V18.4z M47.5,11.3H4.6V8.1
		h42.8V11.3z M75.2,32.7H51.4V8.1h23.8V32.7z"/>
</g>
</svg>
