<?xml version="1.0" encoding="utf-8"?>
<!-- Generator: Adobe Illustrator 19.2.1, SVG Export Plug-In . SVG Version: 6.00 Build 0)  -->
<svg version="1.1" id="Layer_1" xmlns="http://www.w3.org/2000/svg" xmlns:xlink="http://www.w3.org/1999/xlink" x="0px" y="0px"
	 viewBox="0 0 80 48" style="enable-background:new 0 0 80 48;" xml:space="preserve">
<style type="text/css">
	.st0{fill:#999999;}
	.st1{fill:#FFFFFF;stroke:#E0E0E0;stroke-miterlimit:10;}
	.st2{fill:#666766;}
	.st3{fill:#E7E7E7;}
	.st4{fill:#BBBDBF;}
	.st5{clip-path:url(#SVGID_2_);}
	.st6{fill:none;stroke:#BBBDBF;stroke-miterlimit:10;}
	.st7{clip-path:url(#SVGID_4_);}
	.st8{clip-path:url(#SVGID_6_);}
	.st9{clip-path:url(#SVGID_8_);}
	.st10{clip-path:url(#SVGID_10_);}
	.st11{clip-path:url(#SVGID_12_);}
	.st12{clip-path:url(#SVGID_14_);}
	.st13{clip-path:url(#SVGID_16_);}
	.st14{clip-path:url(#SVGID_18_);}
	.st15{clip-path:url(#SVGID_20_);}
	.st16{clip-path:url(#SVGID_22_);}
	.st17{fill:#FFFFFF;}
	.st18{fill:#E7E7E7;stroke:#BBBDBF;stroke-miterlimit:10;}
	.st19{fill:#454545;}
	.st20{fill:none;}
	.st21{fill:#933A3A;}
</style>
<g>
	<path class="st0" d="M75,0H5C2.2,0,0,2.2,0,5v38c0,2.8,2.2,5,5,5h70c2.8,0,5-2.2,5-5V5C80,2.2,77.7,0,75,0z M18.7,39.9h-14v-3.2h14
		V39.9z M25.8,32.7H4.7v-3.2h21.1V32.7z M25.8,25.6H4.7v-3.2h21.1V25.6z M25.8,18.5H4.7v-3.2h21.1V18.5z M25.8,11.3H4.7V8.1h21.1
		V11.3z M43.2,39.8H29.7v-3.1h13.5V39.8z M50.5,32.7H29.7v-3.2h20.8V32.7z M50.5,25.6H29.7v-3.2h20.8V25.6z M50.5,18.5H29.7v-3.2
		h20.8V18.5z M50.5,11.3H29.7V8.1h20.8V11.3z M67.7,39.9H54.4v-3.2h13.3V39.9z M75.3,32.7H54.4v-3.2h20.9V32.7z M75.3,25.6H54.4
		v-3.2h20.9V25.6z M75.3,18.5H54.4v-3.2h20.9V18.5z M75.3,11.3H54.4V8.1h20.9V11.3z"/>
</g>
</svg>
