<?xml version="1.0" encoding="utf-8"?>
<!-- Generator: Adobe Illustrator 21.1.0, SVG Export Plug-In . SVG Version: 6.00 Build 0)  -->
<svg version="1.1" id="Layer_1" xmlns="http://www.w3.org/2000/svg" xmlns:xlink="http://www.w3.org/1999/xlink" x="40px" y="40px" height="40px" width="40px"
	 viewBox="0 0 34 49" style="enable-background:new 0 0 34 49;" xml:space="preserve">
<style type="text/css">
	.st0{fill:#509BA5;}
	.st1{fill:#596982;}
</style>
<title>Shape</title>
<desc>Created with Sketch.</desc>
<g id="Style-Guide">
	<g id="Style-Guide-Copy" transform="translate(-432.000000, -17244.000000)">
		<g id="Shape">
			<path class="st0" d="M449,17245c-8.4,0-16,6.7-16,15c0,12.3,12.8,13.6,16,32.3c3.2-18.7,16-20,16-32.3
				C465,17251.7,457.4,17245,449,17245z M449,17266.7c-3.3,0-6-2.6-6-5.9s2.7-5.9,6-5.9s6,2.6,6,5.9S452.3,17266.7,449,17266.7z"/>
			<path class="st1" d="M449.5,17292.4h-1c-1.7-9.7-5.9-14.6-9.6-18.9c-3.4-4-6.4-7.4-6.4-13.5c0-8.4,7.6-15.5,16.5-15.5
				c8.9,0,16.5,7.1,16.5,15.5c0,6-3,9.5-6.4,13.5C455.4,17277.8,451.2,17282.7,449.5,17292.4z M449,17245.5
				c-8.4,0-15.5,6.6-15.5,14.5c0,5.7,2.8,9,6.1,12.8c3.5,4.1,7.4,8.6,9.4,17c2-8.4,5.9-12.9,9.4-17c3.3-3.8,6.1-7.2,6.1-12.8
				C464.5,17252.1,457.4,17245.5,449,17245.5z M449,17267.2c-3.6,0-6.5-2.9-6.5-6.4c0-3.5,2.9-6.4,6.5-6.4s6.5,2.9,6.5,6.4
				C455.5,17264.3,452.6,17267.2,449,17267.2z M449,17255.4c-3,0-5.5,2.4-5.5,5.4c0,3,2.5,5.4,5.5,5.4c3,0,5.5-2.4,5.5-5.4
				C454.5,17257.8,452,17255.4,449,17255.4z"/>
		</g>
	</g>
</g>
</svg>
